<svg width="27" height="32" viewBox="0 0 27 32" fill="none" xmlns="http://www.w3.org/2000/svg">
<path d="M26 22V9.13604C26 4.36876 23.0413 1 18.2981 1H8.70194C3.95867 1 1 4.36876 1 9.13604V22" stroke="#FF0000" stroke-width="2" stroke-linecap="round" stroke-linejoin="round"/>
<path d="M1 22V25.5849C1 28.576 3.4259 31 6.4181 31H7.06396C8.13261 31 9 30.1337 9 29.0642" stroke="#FF0000" stroke-width="2" stroke-linecap="round" stroke-linejoin="round"/>
<path d="M9 29.0642V24.235C9 23.0065 9.99889 22.0079 11.2365 22H15.7692C17.0131 22 18.0214 23.0002 18.0214 24.235V29.08C18.0199 30.1227 19.4946 30.9748 20.5454 31C23.5577 31 26 28.576 26 25.5849V22" stroke="#FF0000" stroke-width="2" stroke-linecap="round" stroke-linejoin="round"/>
<path d="M19.991 12H20.009" stroke="#FF0000" stroke-width="2" stroke-linecap="round" stroke-linejoin="round"/>
<path d="M13.991 12H14.009" stroke="#FF0000" stroke-width="2" stroke-linecap="round" stroke-linejoin="round"/>
<path d="M6.991 12H7.009" stroke="#FF0000" stroke-width="2" stroke-linecap="round" stroke-linejoin="round"/>
<path d="M19.991 18H20.009" stroke="#FF0000" stroke-width="2" stroke-linecap="round" stroke-linejoin="round"/>
<path d="M13.991 18H14.009" stroke="#FF0000" stroke-width="2" stroke-linecap="round" stroke-linejoin="round"/>
<path d="M6.991 18H7.009" stroke="#FF0000" stroke-width="2" stroke-linecap="round" stroke-linejoin="round"/>
<path d="M19.991 7H20.009" stroke="#FF0000" stroke-width="2" stroke-linecap="round" stroke-linejoin="round"/>
<path d="M13.991 7H14.009" stroke="#FF0000" stroke-width="2" stroke-linecap="round" stroke-linejoin="round"/>
<path d="M6.991 7H7.009" stroke="#FF0000" stroke-width="2" stroke-linecap="round" stroke-linejoin="round"/>
</svg>
