<svg width="42" height="49" viewBox="0 0 42 49" fill="none" xmlns="http://www.w3.org/2000/svg">
<path d="M39.8333 34.0833V14.1238C39.8333 6.72692 35.2967 1.5 28.0237 1.5H13.3096C6.03663 1.5 1.5 6.72692 1.5 14.1238V34.0833" stroke="#C9C9C9" stroke-width="3" stroke-linecap="round" stroke-linejoin="round"/>
<path d="M1.5 34.0835V39.4276C1.5 43.8865 5.27783 47.5002 9.93756 47.5002H10.9434C12.6075 47.5002 13.9583 46.2087 13.9583 44.6144" stroke="#C9C9C9" stroke-width="3" stroke-linecap="round" stroke-linejoin="round"/>
<path d="M13.9583 44.6144V37.4154C13.9583 35.5839 15.4787 34.0952 17.3624 34.0835H24.2615C26.1548 34.0835 27.6895 35.5745 27.6895 37.4154V44.6379C27.6871 46.1923 29.9318 47.4626 31.5311 47.5002C36.1161 47.5002 39.8333 43.8865 39.8333 39.4276V34.0835" stroke="#C9C9C9" stroke-width="3" stroke-linecap="round" stroke-linejoin="round"/>
<path d="M30.7162 19.229H30.7421" stroke="#C9C9C9" stroke-width="3" stroke-linecap="round" stroke-linejoin="round"/>
<path d="M21.1329 19.229H21.1588" stroke="#C9C9C9" stroke-width="3" stroke-linecap="round" stroke-linejoin="round"/>
<path d="M11.5496 19.229H11.5754" stroke="#C9C9C9" stroke-width="3" stroke-linecap="round" stroke-linejoin="round"/>
<path d="M30.7162 27.854H30.7421" stroke="#C9C9C9" stroke-width="3" stroke-linecap="round" stroke-linejoin="round"/>
<path d="M21.1329 27.854H21.1588" stroke="#C9C9C9" stroke-width="3" stroke-linecap="round" stroke-linejoin="round"/>
<path d="M11.5496 27.854H11.5754" stroke="#C9C9C9" stroke-width="3" stroke-linecap="round" stroke-linejoin="round"/>
<path d="M30.7162 10.604H30.7421" stroke="#C9C9C9" stroke-width="3" stroke-linecap="round" stroke-linejoin="round"/>
<path d="M21.1329 10.604H21.1588" stroke="#C9C9C9" stroke-width="3" stroke-linecap="round" stroke-linejoin="round"/>
<path d="M11.5496 10.604H11.5754" stroke="#C9C9C9" stroke-width="3" stroke-linecap="round" stroke-linejoin="round"/>
</svg>
