<svg width="29" height="28" viewBox="0 0 29 28" fill="none" xmlns="http://www.w3.org/2000/svg">
<path fill-rule="evenodd" clip-rule="evenodd" d="M1 8.65158V19.0178C1 20.7747 2.06168 22.3564 3.68824 23.0212L12.6292 26.6784C13.6851 27.1101 14.8685 27.1072 15.9215 26.6697L24.7104 23.0285C26.3268 22.3578 27.3798 20.782 27.3798 19.0323V8.63275C27.3798 6.83383 26.266 5.22321 24.5815 4.58736L15.8186 1.2792C14.841 0.909854 13.7648 0.906957 12.7857 1.27051L3.82005 4.59749C2.12541 5.2261 1 6.84397 1 8.65158Z" stroke="#07D577" stroke-width="2" stroke-linecap="round" stroke-linejoin="round"/>
<path d="M14.1898 26.7802V13.9618C14.1898 12.2092 15.2485 10.629 16.8708 9.96274L26.4809 6.01294" stroke="#07D577" stroke-width="2" stroke-linecap="round" stroke-linejoin="round"/>
<path d="M2.24853 6.15649L14.8134 11.4316" stroke="#07D577" stroke-width="2" stroke-linecap="round" stroke-linejoin="round"/>
</svg>
