<svg width="34" height="32" viewBox="0 0 34 32" fill="none" xmlns="http://www.w3.org/2000/svg">
<path fill-rule="evenodd" clip-rule="evenodd" d="M12.6129 21.3226C18.8742 21.3226 24.2258 22.2886 24.2258 26.1475C24.2258 30.0064 18.9099 31.0001 12.6129 31.0001C6.34988 31.0001 1 30.0427 1 26.1821C1 22.3215 6.31424 21.3226 12.6129 21.3226Z" stroke="#FF0000" stroke-width="2" stroke-linecap="round" stroke-linejoin="round"/>
<path fill-rule="evenodd" clip-rule="evenodd" d="M13.0976 15.5161C9.08915 15.5161 5.83871 12.267 5.83871 8.25806C5.83871 4.24916 9.08915 1 13.0976 1C17.1044 1 20.3548 4.24916 20.3548 8.25806C20.3697 12.2521 17.1424 15.5012 13.1489 15.5161H13.0976Z" stroke="#FF0000" stroke-width="2" stroke-linecap="round" stroke-linejoin="round"/>
<path d="M24.2258 14.5483C26.9564 14.1475 29.0594 11.6994 29.0645 8.73653C29.0645 5.81638 27.0263 3.39331 24.3537 2.93542" stroke="#FF0000" stroke-width="2" stroke-linecap="round" stroke-linejoin="round"/>
<path d="M28.0968 20.3549C30.946 20.7404 32.9355 21.6483 32.9355 23.5176C32.9355 24.8044 31.9986 25.6389 30.4849 26.1613" stroke="#FF0000" stroke-width="2" stroke-linecap="round" stroke-linejoin="round"/>
</svg>
