<svg width="18" height="21" viewBox="0 0 18 21" fill="none" xmlns="http://www.w3.org/2000/svg">
<path d="M16.7203 14.084V5.916C16.7203 2.889 14.8303 0.75 11.8003 0.75H5.67031C2.64031 0.75 0.750305 2.889 0.750305 5.916V14.084" stroke="#07D577" stroke-width="1.5" stroke-linecap="round" stroke-linejoin="round"/>
<path d="M0.75 14.084V16.36C0.75 18.259 2.305 19.798 4.223 19.798H4.637C5.322 19.798 5.878 19.248 5.878 18.569" stroke="#07D577" stroke-width="1.5" stroke-linecap="round" stroke-linejoin="round"/>
<path d="M5.8967 18.569V15.503C5.8967 14.723 6.5327 14.089 7.3207 14.084H10.2067C10.9987 14.084 11.6407 14.719 11.6407 15.503V18.579C11.6397 19.241 12.5787 19.782 13.2477 19.798C15.1657 19.798 16.7207 18.259 16.7207 16.36V14.084" stroke="#07D577" stroke-width="1.5" stroke-linecap="round" stroke-linejoin="round"/>
<path d="M12.7396 8.04883H12.7486" stroke="#07D577" stroke-width="2" stroke-linecap="round" stroke-linejoin="round"/>
<path d="M8.73061 8.04883H8.73961" stroke="#07D577" stroke-width="2" stroke-linecap="round" stroke-linejoin="round"/>
<path d="M4.7216 8.04883H4.7306" stroke="#07D577" stroke-width="2" stroke-linecap="round" stroke-linejoin="round"/>
<path d="M12.7396 11.604H12.7486" stroke="#07D577" stroke-width="2" stroke-linecap="round" stroke-linejoin="round"/>
<path d="M8.73061 11.604H8.73961" stroke="#07D577" stroke-width="2" stroke-linecap="round" stroke-linejoin="round"/>
<path d="M4.7216 11.604H4.7306" stroke="#07D577" stroke-width="2" stroke-linecap="round" stroke-linejoin="round"/>
<path d="M12.7396 4.49365H12.7486" stroke="#07D577" stroke-width="2" stroke-linecap="round" stroke-linejoin="round"/>
<path d="M8.73061 4.49365H8.73961" stroke="#07D577" stroke-width="2" stroke-linecap="round" stroke-linejoin="round"/>
<path d="M4.7216 4.49365H4.7306" stroke="#07D577" stroke-width="2" stroke-linecap="round" stroke-linejoin="round"/>
</svg>
