<svg width="33" height="33" viewBox="0 0 33 33" fill="none" xmlns="http://www.w3.org/2000/svg">
<path d="M8.5 21.5L13.3088 15.261L18.794 19.5626L23.5 13.5" stroke="#07D577" stroke-width="3" stroke-linecap="round" stroke-linejoin="round"/>
<path fill-rule="evenodd" clip-rule="evenodd" d="M28.4873 1.5C30.152 1.5 31.5 2.84502 31.5 4.50247C31.5 6.16148 30.152 7.50494 28.4873 7.50494C26.8226 7.50494 25.4746 6.16148 25.4746 4.50247C25.4746 2.84502 26.8226 1.5 28.4873 1.5Z" stroke="#07D577" stroke-width="3" stroke-linecap="round" stroke-linejoin="round"/>
<path d="M20.5402 2.81543H9.14774C4.42649 2.81543 1.5 6.14751 1.5 10.8512V23.4781C1.5 28.1818 4.37006 31.4998 9.14774 31.4998H22.6343C27.354 31.4998 30.2821 28.1818 30.2821 23.4781V12.4821" stroke="#07D577" stroke-width="3" stroke-linecap="round" stroke-linejoin="round"/>
</svg>
