<svg width="37" height="33" viewBox="0 0 37 33" fill="none" xmlns="http://www.w3.org/2000/svg">
<path d="M30.5822 11.3189C28.4741 5.58811 22.9654 1.5 16.5 1.5C8.21351 1.5 1.5 8.21676 1.5 16.5C1.5 24.7832 8.21351 31.5 16.5 31.5C24.7865 31.5 31.5 24.7832 31.5 16.5" stroke="#07D577" stroke-width="3" stroke-linecap="round" stroke-linejoin="round"/>
<path d="M35.2849 20.7204L31.8357 15.9155L27.047 19.3858" stroke="#07D577" stroke-width="3" stroke-linecap="round" stroke-linejoin="round"/>
<path fill-rule="evenodd" clip-rule="evenodd" d="M13.9012 13.3488C13.9012 12.5202 14.4931 11.9477 15.5796 11.7077V14.891C14.3812 14.5083 13.9012 14.0574 13.9012 13.3488M19.4309 19.7088C19.4309 20.758 18.4466 21.1553 17.6358 21.3045V18.1277C18.9493 18.5412 19.4309 18.9807 19.4309 19.7088M17.6358 15.4245V11.6542C18.5488 11.7726 19.4877 12.1164 20.3196 12.6418C20.4217 12.7066 20.5417 12.7196 20.6601 12.6856C20.7736 12.6483 20.866 12.5639 20.9115 12.4537L21.5536 10.8969C21.6266 10.7185 21.565 10.5142 21.406 10.4072C20.4136 9.73421 19.0563 9.2915 17.6358 9.17475V7.35853C17.6358 7.13475 17.4525 6.95312 17.2304 6.95312H15.985C15.7612 6.95312 15.5796 7.13475 15.5796 7.35853V9.2088C12.3477 9.61745 11.1833 11.6299 11.1833 13.4266C11.1833 16.3504 13.7196 17.1288 15.5796 17.5942V21.345C14.2904 21.1829 13.045 20.6607 12.252 19.9358C12.1563 19.8499 12.0233 19.8126 11.9017 19.8369C11.7736 19.8612 11.6682 19.9439 11.6131 20.0607L10.8947 21.5753C10.8185 21.7358 10.8542 21.9272 10.9839 22.0472C12.0055 22.991 13.739 23.6558 15.5796 23.8212V25.6407C15.5796 25.8645 15.7612 26.0461 15.985 26.0461H17.2304C17.4525 26.0461 17.6358 25.8645 17.6358 25.6407V23.8083C20.9536 23.4029 22.1471 21.3888 22.1471 19.592C22.1471 16.7007 19.6304 15.9304 17.6358 15.4245" fill="#07D577"/>
</svg>
