<svg width="30" height="18" viewBox="0 0 30 18" fill="none" xmlns="http://www.w3.org/2000/svg">
<path d="M2.97154 15H2.2481C1.55836 15 1 14.3543 1 13.5568V2.4432C1 1.64573 1.55836 1 2.2481 1H14.7519C15.4416 1 16 1.64573 16 2.4432V13.5568C16 14.3543 15.4416 15 14.7519 15H14.1477" stroke="#07D577" stroke-width="2" stroke-linecap="round" stroke-linejoin="round"/>
<path fill-rule="evenodd" clip-rule="evenodd" d="M11 14.5C11 13.1206 9.88079 12 8.49909 12C7.11921 12 6 13.1206 6 14.5C6 15.8794 7.11921 17 8.49909 17C9.88079 17 11 15.8794 11 14.5Z" stroke="#07D577" stroke-width="2" stroke-linecap="round" stroke-linejoin="round"/>
<path fill-rule="evenodd" clip-rule="evenodd" d="M25 14.5C25 13.1206 23.8808 12 22.4991 12C21.1192 12 20 13.1206 20 14.5C20 15.8794 21.1192 17 22.4991 17C23.8808 17 25 15.8794 25 14.5Z" stroke="#07D577" stroke-width="2" stroke-linecap="round" stroke-linejoin="round"/>
<path d="M28.3602 14C28.7141 14 29 13.687 29 13.2996V10.1837C29 9.79777 28.771 9.64585 28.3602 9.48329L25.332 8.27397C24.9601 8.14028 24.788 7.94278 24.6908 7.5736L24.2495 5.70037C24.1246 5.19902 23.9622 5 23.6097 5H20" stroke="#07D577" stroke-width="2" stroke-linecap="round" stroke-linejoin="round"/>
</svg>
