<svg width="62" height="57" viewBox="0 0 62 57" fill="none" xmlns="http://www.w3.org/2000/svg">
<path fill-rule="evenodd" clip-rule="evenodd" d="M32.7718 44.1451L39.9603 57C43.6653 55.7591 47.0641 53.8138 50 51.3092L42.1968 37.3535C41.7281 36.5163 40.8628 36 39.9255 36H21.0745C20.1372 36 19.2719 36.5163 18.8032 37.3535L11 51.3092C13.9359 53.8138 17.3347 55.7591 21.0409 57L28.2282 44.1451C29.2374 42.3388 31.7626 42.3388 32.7718 44.1451" fill="#07D577"/>
<path fill-rule="evenodd" clip-rule="evenodd" d="M44.112 18.5112L51.5275 5.97458C48.5379 3.35048 45.0978 1.33599 41.4122 0L33.3619 13.6086C32.8792 14.4261 32.8792 15.4328 33.3631 16.2503L43.1035 32.6804C43.5886 33.4978 44.4822 34.0012 45.45 34L61.5638 33.993C62.2154 30.2116 62.1435 26.3005 61.3039 22.4642L46.4597 22.4713C44.3744 22.4724 43.07 20.2722 44.112 18.5112" fill="#07D577"/>
<path fill-rule="evenodd" clip-rule="evenodd" d="M17.888 18.5112L10.4725 5.97458C13.4621 3.35048 16.9022 1.33599 20.5878 0L28.6381 13.6086C29.1208 14.4261 29.1208 15.4328 28.6369 16.2503L18.8965 32.6804C18.4114 33.4978 17.5178 34.0012 16.55 34L0.436186 33.993C-0.215411 30.2116 -0.143544 26.3005 0.696106 22.4642L15.5403 22.4713C17.6256 22.4724 18.93 20.2722 17.888 18.5112" fill="#07D577"/>
</svg>
