<svg width="43" height="43" viewBox="0 0 43 43" fill="none" xmlns="http://www.w3.org/2000/svg">
<path d="M10.8042 27.5426L17.0383 19.4402L24.1492 25.0265L30.25 17.1532" stroke="#07D577" stroke-width="3" stroke-linecap="round" stroke-linejoin="round"/>
<path fill-rule="evenodd" clip-rule="evenodd" d="M37.3609 1.5C39.5729 1.5 41.3642 3.29336 41.3642 5.50329C41.3642 7.71531 39.5729 9.50658 37.3609 9.50658C35.1489 9.50658 33.3576 7.71531 33.3576 5.50329C33.3576 3.29336 35.1489 1.5 37.3609 1.5Z" stroke="#07D577" stroke-width="3" stroke-linecap="round" stroke-linejoin="round"/>
<path d="M26.8007 3.25415H11.6624C5.38873 3.25415 1.5 7.69693 1.5 13.9685V30.8044C1.5 37.0759 5.31375 41.5 11.6624 41.5H29.5834C35.855 41.5 39.7458 37.0759 39.7458 30.8044V16.143" stroke="#07D577" stroke-width="3" stroke-linecap="round" stroke-linejoin="round"/>
</svg>
