<svg width="28" height="28" viewBox="0 0 28 28" fill="none" xmlns="http://www.w3.org/2000/svg">
<path fill-rule="evenodd" clip-rule="evenodd" d="M26.5 14C26.5 7.0973 20.9054 1.5 14 1.5C7.09459 1.5 1.5 7.0973 1.5 14C1.5 20.9027 7.09459 26.5 14 26.5C20.9054 26.5 26.5 20.9027 26.5 14Z" stroke="#07D577" stroke-width="3" stroke-linecap="round" stroke-linejoin="round"/>
<path fill-rule="evenodd" clip-rule="evenodd" d="M11.9278 10.8596C11.9278 10.1652 12.3996 9.68549 13.2655 9.48437V12.1519C12.3104 11.8312 11.9278 11.4535 11.9278 10.8596M16.3351 16.1893C16.3351 17.0685 15.5506 17.4015 14.9044 17.5265V14.8644C15.9513 15.2109 16.3351 15.5792 16.3351 16.1893M14.9044 12.599V9.43953C15.632 9.53873 16.3804 9.82682 17.0434 10.2671C17.1248 10.3215 17.2205 10.3323 17.3148 10.3038C17.4053 10.2725 17.479 10.2019 17.5151 10.1095L18.027 8.80491C18.0851 8.65543 18.036 8.4842 17.9093 8.39451C17.1184 7.83056 16.0366 7.45957 14.9044 7.36173V5.83973C14.9044 5.6522 14.7583 5.5 14.5813 5.5H13.5887C13.4103 5.5 13.2655 5.6522 13.2655 5.83973V7.39027C10.6897 7.73272 9.76168 9.41914 9.76168 10.9248C9.76168 13.375 11.7831 14.0273 13.2655 14.4173V17.5605C12.238 17.4246 11.2454 16.987 10.6134 16.3796C10.5372 16.3075 10.4312 16.2763 10.3342 16.2967C10.2321 16.3171 10.1481 16.3864 10.1042 16.4842L9.53162 17.7534C9.47087 17.888 9.49931 18.0483 9.6027 18.1489C10.417 18.9398 11.7986 19.4969 13.2655 19.6356V21.1603C13.2655 21.3478 13.4103 21.5 13.5887 21.5H14.5813C14.7583 21.5 14.9044 21.3478 14.9044 21.1603V19.6247C17.5487 19.2849 18.5 17.5972 18.5 16.0915C18.5 13.6685 16.4941 13.023 14.9044 12.599" fill="#07D577"/>
</svg>
