<svg width="46" height="43" viewBox="0 0 46 43" fill="none" xmlns="http://www.w3.org/2000/svg">
<path d="M23.3182 25.7424V41.5" stroke="#07D577" stroke-width="3" stroke-linecap="round" stroke-linejoin="round"/>
<path d="M17.2576 8.77271V14.8333" stroke="#07D577" stroke-width="3" stroke-linecap="round" stroke-linejoin="round"/>
<path d="M28.1667 8.77271V14.8333" stroke="#07D577" stroke-width="3" stroke-linecap="round" stroke-linejoin="round"/>
<path d="M12.0946 29.3788H9.93898C5.28378 29.3788 1.5 25.6241 1.5 20.9883V9.86773C1.5 5.24556 5.26085 1.5 9.91605 1.5H35.4623C40.1405 1.5 43.9242 5.25694 43.9242 9.8905V21.0133C43.9242 25.6332 40.1405 29.3788 35.4853 29.3788H33.3296" stroke="#07D577" stroke-width="3" stroke-linecap="round" stroke-linejoin="round"/>
<path fill-rule="evenodd" clip-rule="evenodd" d="M27.5804 25.5861H17.8365C15.1695 25.5861 13.0025 23.4367 13.0025 20.7818V19.9051C13.0025 17.2525 15.1695 15.1031 17.8365 15.1031H27.5804C30.2588 15.1031 32.4259 17.2525 32.4259 19.9051V20.7818C32.4259 23.4367 30.2588 25.5861 27.5804 25.5861Z" stroke="#07D577" stroke-width="3" stroke-linecap="round" stroke-linejoin="round"/>
</svg>
