<svg width="38" height="29" viewBox="0 0 38 29" fill="none" xmlns="http://www.w3.org/2000/svg">
<path d="M28.9402 12.8023C31.3122 12.469 33.1383 10.4354 33.1434 7.9716C33.1434 5.5435 31.3734 3.53029 29.0524 3.14941" stroke="#07D577" stroke-width="3" stroke-linecap="round" stroke-linejoin="round"/>
<path d="M32.0705 18.5034C34.3677 18.8469 35.9711 19.6512 35.9711 21.309C35.9711 22.4499 35.2162 23.1913 33.9953 23.6572" stroke="#07D577" stroke-width="3" stroke-linecap="round" stroke-linejoin="round"/>
<path fill-rule="evenodd" clip-rule="evenodd" d="M18.7364 19.2075C13.2715 19.2075 8.60405 20.0356 8.60405 23.3428C8.60405 26.6482 13.2426 27.5001 18.7364 27.5001C24.2013 27.5001 28.8671 26.6805 28.8671 23.3717C28.8671 20.0628 24.2302 19.2075 18.7364 19.2075Z" stroke="#07D577" stroke-width="3" stroke-linecap="round" stroke-linejoin="round"/>
<path fill-rule="evenodd" clip-rule="evenodd" d="M18.7364 14.4872C22.3224 14.4872 25.23 11.5814 25.23 7.99362C25.23 4.40759 22.3224 1.5 18.7364 1.5C15.1504 1.5 12.2428 4.40759 12.2428 7.99362C12.2292 11.5678 15.1147 14.4753 18.6888 14.4872H18.7364Z" stroke="#07D577" stroke-width="3" stroke-linecap="round" stroke-linejoin="round"/>
<path d="M8.53093 12.8023C6.15725 12.469 4.33278 10.4354 4.32768 7.9716C4.32768 5.5435 6.09774 3.53029 8.41871 3.14941" stroke="#07D577" stroke-width="3" stroke-linecap="round" stroke-linejoin="round"/>
<path d="M5.4006 18.5034C3.10343 18.8469 1.5 19.6512 1.5 21.309C1.5 22.4499 2.25495 23.1913 3.4758 23.6572" stroke="#07D577" stroke-width="3" stroke-linecap="round" stroke-linejoin="round"/>
</svg>
