<svg width="48" height="43" viewBox="0 0 48 43" fill="none" xmlns="http://www.w3.org/2000/svg">
<path d="M35.0711 15.8535L25.6898 23.4805C23.9187 24.8864 21.4256 24.8864 19.6524 23.4805L10.1931 15.8535" stroke="#07D577" stroke-width="3" stroke-linecap="round" stroke-linejoin="round"/>
<path d="M32.9727 3.5022H12.247C5.82753 3.5022 1.5 8.77756 1.5 15.2604V29.7587C1.5 36.2436 5.82753 41.5169 12.247 41.5H32.9727C39.3922 41.5169 43.7198 36.2436 43.7198 29.7587V15.2604" stroke="#07D577" stroke-width="3" stroke-linecap="round" stroke-linejoin="round"/>
<path fill-rule="evenodd" clip-rule="evenodd" d="M43.211 4.6554L45.7505 6.04443C46.215 6.29986 46.215 6.96904 45.7505 7.22236L43.211 8.61139C43.0991 8.67261 43.0062 8.76549 42.9429 8.87949L41.556 11.4169C41.3006 11.8834 40.6314 11.8834 40.376 11.4169L38.9869 8.87949C38.9257 8.76549 38.8328 8.67261 38.7209 8.61139L36.1814 7.22236C35.7149 6.96904 35.7149 6.29986 36.1814 6.04443L38.7209 4.6554C38.8328 4.59418 38.9257 4.5013 38.9869 4.3873L40.376 1.8499C40.6314 1.38337 41.3006 1.38337 41.556 1.8499L42.9429 4.3873C43.0062 4.5013 43.0991 4.59418 43.211 4.6554Z" stroke="#07D577" stroke-width="3" stroke-linecap="round" stroke-linejoin="round"/>
</svg>
