<svg width="54" height="51" viewBox="0 0 54 51" fill="none" xmlns="http://www.w3.org/2000/svg">
<path fill-rule="evenodd" clip-rule="evenodd" d="M20 34.5C29.9746 34.5 38.5 35.9973 38.5 41.9786C38.5 47.9598 30.0314 49.5 20 49.5C10.0227 49.5 1.5 48.0161 1.5 42.0321C1.5 36.0482 9.96587 34.5 20 34.5Z" stroke="#C9C9C9" stroke-width="3" stroke-linecap="round" stroke-linejoin="round"/>
<path fill-rule="evenodd" clip-rule="evenodd" d="M21.0013 24.5C14.6501 24.5 9.5 19.3519 9.5 13C9.5 6.64812 14.6501 1.5 21.0013 1.5C27.3498 1.5 32.4999 6.64812 32.4999 13C32.5235 19.3283 27.4101 24.4764 21.0826 24.5H21.0013Z" stroke="#C9C9C9" stroke-width="3" stroke-linecap="round" stroke-linejoin="round"/>
<path d="M38.5 23.5C43.0146 22.8441 46.4915 18.8389 46.5 13.9913C46.5 9.21356 43.1302 5.24916 38.7115 4.5" stroke="#C9C9C9" stroke-width="3" stroke-linecap="round" stroke-linejoin="round"/>
<path d="M44.5 32.5C49.2107 33.0976 52.5 34.5049 52.5 37.4023C52.5 39.3968 50.951 40.6903 48.4484 41.5" stroke="#C9C9C9" stroke-width="3" stroke-linecap="round" stroke-linejoin="round"/>
</svg>
