<svg width="29" height="29" viewBox="0 0 29 29" fill="none" xmlns="http://www.w3.org/2000/svg">
<path fill-rule="evenodd" clip-rule="evenodd" d="M18.6311 25.1112L26.9761 14.6912C27.3991 14.1612 27.0231 13.3772 26.3451 13.3772H23.4951C22.8691 13.3772 22.4801 12.6962 22.7991 12.1572L26.1061 5.42923C26.4251 4.89023 26.0361 4.20923 25.4101 4.20923H19.8331C19.5531 4.20923 19.2931 4.35423 19.1461 4.59123L13.4111 15.5872C13.0771 16.1252 13.4641 16.8212 14.0981 16.8212H18.5901C19.1051 16.8212 19.4881 17.2952 19.3801 17.7992L17.2101 24.4362C17.0311 25.2702 18.0981 25.7772 18.6311 25.1112Z" stroke="#07D577" stroke-width="2" stroke-linecap="round" stroke-linejoin="round"/>
<path d="M14.9992 6.4353C10.6052 6.4353 7.0432 9.9973 7.0432 14.3913C7.0432 18.7853 10.6052 22.3473 14.9992 22.3473" stroke="#07D577" stroke-width="2" stroke-linecap="round" stroke-linejoin="round"/>
<path d="M14.3916 1V2.916" stroke="#07D577" stroke-width="2" stroke-linecap="round" stroke-linejoin="round"/>
<path d="M14.3916 25.8672V27.7832" stroke="#07D577" stroke-width="2" stroke-linecap="round" stroke-linejoin="round"/>
<path d="M1 14.3916H2.916" stroke="#07D577" stroke-width="2" stroke-linecap="round" stroke-linejoin="round"/>
<path d="M7.5897 2.85596L8.5627 4.50596" stroke="#07D577" stroke-width="2" stroke-linecap="round" stroke-linejoin="round"/>
<path d="M2.8783 7.552L4.5253 8.531" stroke="#07D577" stroke-width="2" stroke-linecap="round" stroke-linejoin="round"/>
<path d="M8.5629 24.2766L7.5899 25.9266" stroke="#07D577" stroke-width="2" stroke-linecap="round" stroke-linejoin="round"/>
<path d="M4.5256 20.2524L2.8786 21.2314" stroke="#07D577" stroke-width="2" stroke-linecap="round" stroke-linejoin="round"/>
</svg>
